<?xml version="1.0" encoding="utf-8"?>
<!-- Generator: Adobe Illustrator 23.0.3, SVG Export Plug-In . SVG Version: 6.00 Build 0)  -->
<svg version="1.1" id="Layer_1" xmlns="http://www.w3.org/2000/svg" xmlns:xlink="http://www.w3.org/1999/xlink" x="0px" y="0px"
	 viewBox="0 0 4000 4000" style="enable-background:new 0 0 4000 4000;" xml:space="preserve">
<style type="text/css">
	.st0{fill:#2358A3;}
</style>
<g>
	<rect x="1828.29" y="849.57" class="st0" width="263.17" height="1632.82"/>
	<path class="st0" d="M1303.56,1510.61c88.82,0,161.2,65.79,161.2,157.9c0,105.27-72.38,171.06-161.2,171.06
		c-95.39,0-171.06-65.79-171.06-171.06C1132.5,1576.4,1208.17,1510.61,1303.56,1510.61z"/>
	<path class="st0" d="M2630.26,1510.61c88.82,0,161.2,65.79,161.2,157.9c0,105.27-72.38,171.06-161.2,171.06
		c-95.39,0-171.06-65.79-171.06-171.06C2459.2,1576.4,2534.87,1510.61,2630.26,1510.61z"/>
	<path class="st0" d="M2587.31,2843.86l-16.25,13.92c-53.95,46.27-122.51,71.75-193.1,71.85c-70.59-0.1-139.14-25.59-193.1-71.85
		l-16.25-13.92c-28.52-28.21-51.77-62.37-67.49-101.41l-5.83-14.51h-253.97l6.7,28.46c58.28,247.08,276.02,419.67,529.53,419.67
		c0.14,0,0.28-0.02,0.42-0.02s0.27,0.02,0.41,0.02c163.66,0,312.12-72.22,412.69-189.7l-175.44-175.44
		C2606.84,2822.57,2597.55,2833.73,2587.31,2843.86z"/>
</g>
</svg>
