<?xml version="1.0" encoding="utf-8"?>
<!-- Generator: Adobe Illustrator 23.0.3, SVG Export Plug-In . SVG Version: 6.00 Build 0)  -->
<svg version="1.1" id="Layer_1" xmlns="http://www.w3.org/2000/svg" xmlns:xlink="http://www.w3.org/1999/xlink" x="0px" y="0px"
	 viewBox="0 0 4000 783" style="enable-background:new 0 0 4000 783;" xml:space="preserve">
<style type="text/css">
	.st0{fill:#2559A4;}
</style>
<g>
	<rect x="225.26" y="67.44" class="st0" width="74.99" height="465.25"/>
	<rect x="671.94" y="301.77" class="st0" width="74.99" height="421.81"/>
	<path class="st0" d="M1436.69,294.27c-62.8,0-117.17,29.06-148.1,73.12c-15.93-44.99-62.8-73.12-127.48-73.12
		c-53.43,0-108.73,24.37-139.67,60.93v-53.43h-74.99v421.81h74.99V421.76c27.18-38.43,63.74-57.18,110.61-57.18
		c57.18,0,89.99,34.68,89.99,87.18v271.83h74.99V455.5c0-15,0-25.31-0.94-30c19.68-36.56,61.86-60.93,110.61-60.93
		c60.93,0,90.92,34.68,90.92,103.11v255.9h74.99V447.06C1572.6,344.89,1527.61,294.27,1436.69,294.27z"/>
	<path class="st0" d="M2106.33,485.49c0-57.17-18.75-103.1-56.24-138.72c-37.49-36.56-84.36-54.37-139.67-54.37
		c-67.49,0-120.92,20.62-159.35,62.81c-38.43,41.24-58.11,93.73-58.11,157.47c0,66.55,20.62,119.98,61.86,160.29
		c41.24,40.3,95.61,59.99,164.04,59.99c64.68,0,118.11-18.75,158.42-55.31l-23.43-59.05c-30.93,29.06-74.05,44.06-129.36,44.06
		c-83.43,0-140.6-47.81-147.16-126.54h324.33C2104.46,522.05,2106.33,505.18,2106.33,485.49z M1772.64,475.19
		c8.43-66.56,59.05-112.49,134.04-112.49c72.18,0,118.11,42.18,121.86,112.49H1772.64z"/>
	<path class="st0" d="M2296.12,233.34v490.24h26.24v-396.5h179.04v-25.31h-179.04v-59.99c0-104.99,40.31-157.47,119.98-157.47
		c33.75,0,64.68,10.31,91.86,29.99l10.31-20.62C2517.33,70.25,2482.65,59,2439.53,59C2343.92,59,2296.12,117.12,2296.12,233.34z"/>
	<rect x="2672.62" y="67.44" class="st0" width="26.24" height="656.14"/>
	<path class="st0" d="M3070.98,293.34c-63.74,0-116.23,20.62-156.54,61.87c-40.3,41.24-60.93,93.73-60.93,157.47
		c0,63.74,20.62,116.23,60.93,157.47c40.31,41.24,92.8,61.86,156.54,61.86c63.74,0,116.23-20.62,156.54-61.86
		c41.24-41.25,61.87-93.74,61.87-157.47c0-63.75-20.62-116.23-61.87-157.47C3187.21,313.96,3134.72,293.34,3070.98,293.34z
		 M3207.83,652.34c-35.62,36.56-81.55,54.37-136.85,54.37c-55.3,0-101.23-17.81-136.85-54.37c-35.62-36.56-53.43-82.49-53.43-139.66
		c0-57.18,17.81-103.11,53.43-139.67c35.62-36.56,81.55-54.37,136.85-54.37c55.31,0,101.23,17.81,136.85,54.37
		c35.62,36.56,53.43,82.49,53.43,139.67C3261.26,569.85,3243.45,615.79,3207.83,652.34z"/>
	<path class="st0" d="M3947.96,301.77l-99.36,314.01c-10.31,30.94-16.87,54.37-21.56,70.3l-24.37-65.61l-119.98-318.7H3663
		L3544.9,622.35c-4.68,12.19-16.87,47.81-23.43,62.8l-8.43-27.18l-11.25-35.62l-105.92-320.58h-29.06l143.42,428.37h17.81
		l123.73-329.95l20.62-58.12l18.75,54.37l126.54,333.7h19.68l137.79-428.37H3947.96z"/>
	<path class="st0" d="M75.74,255.79c25.31,0,45.93,18.75,45.93,44.99c0,30-20.62,48.74-45.93,48.74
		c-27.18,0-48.74-18.75-48.74-48.74C27,274.54,48.56,255.79,75.74,255.79z"/>
	<path class="st0" d="M453.77,255.79c25.31,0,45.93,18.75,45.93,44.99c0,30-20.62,48.74-45.93,48.74
		c-27.18,0-48.74-18.75-48.74-48.74C405.03,274.54,426.59,255.79,453.77,255.79z"/>
	<path class="st0" d="M441.53,635.69l-4.63,3.97c-15.37,13.18-34.91,20.45-55.02,20.47c-20.11-0.03-39.65-7.29-55.02-20.47
		l-4.63-3.97c-8.13-8.04-14.75-17.77-19.23-28.89l-1.66-4.13h-72.37l1.91,8.11c16.6,70.4,78.65,119.58,150.88,119.58
		c0.04,0,0.08-0.01,0.12-0.01c0.04,0,0.08,0.01,0.12,0.01c46.63,0,88.93-20.58,117.59-54.05l-49.99-49.99
		C447.09,629.62,444.45,632.8,441.53,635.69z"/>
</g>
</svg>
